<svg xmlns="http://www.w3.org/2000/svg" xmlns:xlink="http://www.w3.org/1999/xlink" width="89" height="76" viewBox="0 0 89 76"><defs><path id="ecjra" d="M457.582 236.788v-33.75h33.751v33.75z"/><path id="ecjrb" d="M491.335 194.752H457.65l16.842-23.865 16.843 23.865z"/><path id="ecjrc" d="M500.54 186.958c0-8.88 7.198-16.08 16.078-16.08 8.88 0 16.08 7.2 16.08 16.08 0 8.88-7.2 16.08-16.08 16.08-8.88 0-16.079-7.2-16.079-16.08z"/><path id="ecjrd" d="M541.233 208.382c.89-.89 2.671-.89 3.561 0 .89.89.89 2.671 0 3.562l-34.429 34.429c-.89.89-2.67.89-3.561 0-.89-.89-.89-2.671 0-3.562z"/><path id="ecjre" d="M545.409 242.81c.89.891.89 2.672 0 3.563-.89.89-2.672.89-3.562 0l-34.429-34.429c-.89-.89-.89-2.671 0-3.562.89-.89 2.672-.89 3.562 0z"/><clipPath id="ecjrf"><use fill="#fff" xlink:href="#ecjra"/></clipPath><clipPath id="ecjrg"><use fill="#fff" xlink:href="#ecjrb"/></clipPath><clipPath id="ecjrh"><use fill="#fff" xlink:href="#ecjrc"/></clipPath><clipPath id="ecjri"><use fill="#fff" xlink:href="#ecjrd"/></clipPath><clipPath id="ecjrj"><use fill="#fff" xlink:href="#ecjre"/></clipPath></defs><g><g transform="translate(-457 -171)"><use fill="#fff" fill-opacity="0" stroke="#060606" stroke-linecap="round" stroke-linejoin="round" stroke-miterlimit="50" stroke-width="8" clip-path="url(&quot;#ecjrf&quot;)" xlink:href="#ecjra"/></g><g transform="translate(-457 -171)"><use fill="#fff" fill-opacity="0" stroke="#060606" stroke-linecap="round" stroke-linejoin="round" stroke-miterlimit="50" stroke-width="8" clip-path="url(&quot;#ecjrg&quot;)" xlink:href="#ecjrb"/></g><g transform="translate(-457 -171)"><use fill="#fff" xlink:href="#ecjrc"/><use fill="#fff" fill-opacity="0" stroke="#060606" stroke-miterlimit="50" stroke-width="8" clip-path="url(&quot;#ecjrh&quot;)" xlink:href="#ecjrc"/></g><g transform="translate(-457 -171)"><use fill="#060606" xlink:href="#ecjrd"/><use fill="#fff" fill-opacity="0" stroke="#060606" stroke-miterlimit="50" stroke-width="2" clip-path="url(&quot;#ecjri&quot;)" xlink:href="#ecjrd"/></g><g transform="translate(-457 -171)"><use fill="#060606" xlink:href="#ecjre"/><use fill="#fff" fill-opacity="0" stroke="#060606" stroke-miterlimit="50" stroke-width="2" clip-path="url(&quot;#ecjrj&quot;)" xlink:href="#ecjre"/></g></g></svg>