<svg xmlns="http://www.w3.org/2000/svg" xmlns:xlink="http://www.w3.org/1999/xlink" width="71" height="56" viewBox="0 0 71 56"><defs><path id="ddcna" d="M1608.954 156.517a1.794 1.794 0 0 0-2.174-1.306l-45.013 11.223a1.794 1.794 0 0 0-1.307 2.174l1.042 4.176a1.794 1.794 0 0 0 2.174 1.306l45.013-11.223a1.794 1.794 0 0 0 1.306-2.174zm-1.417-23.777c.052.168.083.345.083.529l-.01 16.268c0 .82-.557 1.534-1.35 1.737l-22.942 5.843-.01.002-22.97 5.727c-.799.2-1.631-.171-2.017-.898l-7.661-14.418a1.79 1.79 0 0 1-.179-.52 3.772 3.772 0 0 1-3.427-2.847 3.77 3.77 0 0 1 2.743-4.566 3.77 3.77 0 0 1 4.566 2.744 3.76 3.76 0 0 1-.631 3.153l5.997 3.635a6.74 6.74 0 0 0 5.091.77 6.734 6.734 0 0 0 4.55-3.878l5.274-12.402a3.753 3.753 0 0 1-1.715-2.315 3.77 3.77 0 0 1 2.743-4.566 3.77 3.77 0 0 1 4.566 2.744 3.75 3.75 0 0 1-.387 2.773l.009.007 10.43 8.516a6.727 6.727 0 0 0 5.856 1.311 6.653 6.653 0 0 0 4.12-3.049l3.62-6.026a3.76 3.76 0 0 1-2.074-2.504 3.77 3.77 0 0 1 2.743-4.565 3.77 3.77 0 0 1 4.566 2.743 3.77 3.77 0 0 1-1.584 4.052z"/><mask id="ddcnc" width="2" height="2" x="-1" y="-1"><path fill="#fff" d="M1546 125h65v50h-65z"/><use xlink:href="#ddcna"/></mask><filter id="ddcnb" width="97" height="82" x="1530" y="109" filterUnits="userSpaceOnUse"><feOffset in="SourceGraphic" result="FeOffset1032Out"/><feGaussianBlur in="FeOffset1032Out" result="FeGaussianBlur1033Out" stdDeviation="2.4 2.4"/></filter><linearGradient id="ddcnd" x1="1576.17" x2="1590.36" y1="127.39" y2="184.27" gradientUnits="userSpaceOnUse"><stop offset="0" stop-color="#00efd1"/><stop offset="1" stop-color="#00acea"/></linearGradient></defs><g><g transform="translate(-1543 -122)"><g filter="url(#ddcnb)"><use fill="none" stroke-opacity=".05" stroke-width="0" mask="url(&quot;#ddcnc&quot;)" xlink:href="#ddcna"/><use fill-opacity=".05" xlink:href="#ddcna"/></g><use fill="url(#ddcnd)" xlink:href="#ddcna"/></g></g></svg>