<svg xmlns="http://www.w3.org/2000/svg" xmlns:xlink="http://www.w3.org/1999/xlink" width="36" height="44" viewBox="0 0 36 44"><defs><path id="zo8da" d="M1300.938 519.903a1.836 1.836 0 0 1 2.436-.9 1.839 1.839 0 0 1 .9 2.436 1.839 1.839 0 0 1-3.39-.131c-.17-.46-.151-.96.054-1.405zm.363 3.602a3.124 3.124 0 0 0 4.138-1.529 3.123 3.123 0 0 0-1.528-4.138 3.1 3.1 0 0 0-2.386-.093 3.099 3.099 0 0 0-1.752 1.621 3.099 3.099 0 0 0-.093 2.386 3.1 3.1 0 0 0 1.621 1.753z"/><path id="zo8dc" d="M1296.244 532.802a.7.7 0 0 1 .38-.332.7.7 0 0 1 .539.02.701.701 0 0 1 .361.901l-2.69 4.159zm.135 4.72l2.19 1.01a.64.64 0 0 0 .85-.315.642.642 0 0 0-.314-.851l-2.022-.931 1.547-2.391a.646.646 0 0 0 .044-.08 1.975 1.975 0 0 0 .06-1.521 1.976 1.976 0 0 0-1.034-1.118 1.975 1.975 0 0 0-1.521-.059 1.976 1.976 0 0 0-1.117 1.034.65.65 0 0 0-.033.085l-.81 2.73-1.61-.741c.476-4.85 1.847-11.202 3.383-15.63a.642.642 0 0 0-1.212-.42c-1.614 4.654-3.05 11.392-3.492 16.386a.641.641 0 0 0 .371.639l2.19 1.008-.77 2.593c-.146.49.085 1.001.55 1.215a1.01 1.01 0 0 0 1.28-.372z"/><path id="zo8de" d="M1319.825 519.369a2.466 2.466 0 0 1-1.804 1.634 2.445 2.445 0 0 1-1.29-.064l-1.177-.385a2.129 2.129 0 0 0-.159-.044l-.02-.005a2.087 2.087 0 0 0-.171-.032 2.057 2.057 0 0 0-1.231.203c-.021.01-.041.022-.061.034l-.013.007a2.065 2.065 0 0 0-.516.406l-.006.007c-.036.04-.07.08-.103.122l-.004.006c-.034.044-.068.09-.098.137l-.783-.256h-.002l.752-2.3a1.99 1.99 0 0 1 2.506-1.271l2.43.794c.24.079.5.094.748.044l1.41-.283zm-2.418 3.438l-.554 1.694a2.637 2.637 0 0 1-3.335 1.692 2.647 2.647 0 0 1-1.693-3.335l.164-.5 1.329.434a.648.648 0 0 0 .196.032h.01a.646.646 0 0 0 .084-.007l.013-.002a.632.632 0 0 0 .086-.02l.015-.005a.641.641 0 0 0 .24-.146l.009-.009c.019-.019.037-.04.053-.06l.01-.012a.632.632 0 0 0 .047-.075l.008-.018a.646.646 0 0 0 .037-.086l.035-.106a.785.785 0 0 1 .028-.074l.006-.011.03-.06.002-.003a.791.791 0 0 1 .689-.395h.006c.02 0 .04.002.061.004h.018l.053.01.025.004a.774.774 0 0 1 .076.02l1.176.386c.073.023.146.044.22.063l.036.01c.072.018.145.034.218.048l.027.004c.154.028.308.046.463.054l.026.002c.064.003.129.005.193.004-.022.156-.057.31-.107.463zm-7.63 6.505l.01.001a.692.692 0 0 1-.13 1.377l-8.462-.945.186-1.37 6.398.714.007.001zm1.599-1.01a2.07 2.07 0 0 1 .845 1.679c0 .448-.142.877-.41 1.24l-4 5.404-1.438-.869-2.15-1.3 2.109-2.846 3.187.356h.01a1.96 1.96 0 0 0 1.445-.44c.407-.335.66-.809.71-1.333a1.961 1.961 0 0 0-.44-1.446 1.961 1.961 0 0 0-1.329-.71l-.41-.046a2.085 2.085 0 0 1 1.87.31zm.762 12.438c.42.254.616.759.476 1.235l-2.415 8.593-2.077-.608 1.725-6.178a.641.641 0 0 0-.28-.718l-6.323-3.904a1.82 1.82 0 0 1-.636-2.435l.194-.35.655-.883 2.188 1.323zm-12.219-11.137l-.54-.06-.01-.002a.683.683 0 0 1-.069-.01l-.008-.002a.693.693 0 0 1-.542-.596v-.007a.68.68 0 0 1-.004-.052v-.018c0-.016 0-.033.002-.05v-.02l.002-.013a.699.699 0 0 1 .008-.054l.007-.029.01-.036.01-.032.012-.03.015-.033.012-.026a.665.665 0 0 1 .019-.033l.013-.022a.655.655 0 0 1 .023-.033l.015-.019a.742.742 0 0 1 .026-.031l.015-.017.03-.03.016-.014a.689.689 0 0 1 .14-.096l.018-.008a.67.67 0 0 1 .04-.018l.02-.008a.664.664 0 0 1 .04-.013l.023-.006a.638.638 0 0 1 .04-.01l.026-.004.039-.005c.01-.002.021-.002.032-.002l.034-.002c.022 0 .044 0 .067.003l.224.025.382.042zm.351-17.113c2.808-1.942 6.278-2.71 7.453-2.926a22.933 22.933 0 0 1 1.699 3.667l.007.021c.06.17.12.343.178.519l.02.064.062.195.024.076.075.25.022.077a17.905 17.905 0 0 1 .119.435l.034.132.035.144a16.894 16.894 0 0 1 .115.507l.02.094c.038.192.074.386.106.581l.012.077.028.184.01.074c.021.155.04.312.056.468zm21.393 4.36a.642.642 0 0 0-.606-.202l-2.487.5a.188.188 0 0 1-.096-.005l-2.43-.795a3.274 3.274 0 0 0-4.125 2.093l-.268.821c.026-.336.039-.679.036-1.028a.656.656 0 0 0 .004-.083c-.074-4.893-2.982-9.448-3.105-9.64a.64.64 0 0 0-.595-.29l-.03.003-.02.003c-.42.058-5.633.842-9.324 3.903a.644.644 0 0 0-.06.057c-1.213 1.02-2.13 2.185-2.72 3.463l-.104.232a.641.641 0 0 0 1.17.527l.101-.225c.506-1.099 1.256-2.025 2.13-2.805l11.273 5.191c-.025 1.171-.242 2.343-.748 3.442-.7 1.52-1.845 3.459-3.319 5.626l-6.703-.749h-.01a1.976 1.976 0 0 0-2.155 1.773l-.003.038-.004.062v.026c-.002.025-.003.05-.002.075v.007c.003.451.159.884.45 1.237l.026.03a1.933 1.933 0 0 0 .53.436 1.967 1.967 0 0 0 .381.166l.03.008c.053.016.108.03.164.04l.012.003c.06.012.122.021.185.028l5.616.627-2.081 2.811-.003.003-1.03 1.391-.005.009a.643.643 0 0 0-.046.074l-.004.005-.199.357-.005.01-6.651 11.926c-.168.3-.068.68.226.86l2.94 1.794a.639.639 0 0 0 .844-.158l5.366-7.012a.641.641 0 0 0-1.02-.78l-5.014 6.554-1.921-1.172 4.407-7.904.723-1.295c.248.533.65 1.002 1.186 1.333l5.912 3.65-1.765 6.324c-.095.338.1.69.437.788l3.307.968a.641.641 0 0 0 .797-.442l2.59-9.21a2.366 2.366 0 0 0-1.046-2.687l-3.89-2.351 3.93-5.308a3.347 3.347 0 0 0 .662-2.002c0-1.064-.51-2.077-1.365-2.71a3.376 3.376 0 0 0-4.017.006c.938-1.437 1.717-2.76 2.302-3.908a3.933 3.933 0 0 0 3.916 4.238 3.917 3.917 0 0 0 3.732-2.707l.554-1.695c.118-.362.182-.733.192-1.107a3.754 3.754 0 0 0 2.227-2.331l.748-2.291a.64.64 0 0 0-.13-.625z"/><path id="zo8dg" d="M1293.676 549.26h-6.374a.641.641 0 0 0 0 1.283h6.374a.641.641 0 0 0 0-1.283z"/><path id="zo8di" d="M1293.676 545.578h-4.48a.641.641 0 1 0 0 1.283h4.48a.641.641 0 0 0 0-1.283z"/><path id="zo8dk" d="M1293.676 541.896h-1.895a.641.641 0 0 0 0 1.282h1.895a.641.641 0 0 0 0-1.282z"/><linearGradient id="zo8db" x1="1302.61" x2="1302.61" y1="517.55" y2="523.79" gradientUnits="userSpaceOnUse"><stop offset="0" stop-color="#006df0"/><stop offset="1" stop-color="#00e7f0"/></linearGradient><linearGradient id="zo8dd" x1="1295.39" x2="1295.39" y1="517.89" y2="540.26" gradientUnits="userSpaceOnUse"><stop offset="0" stop-color="#006df0"/><stop offset="1" stop-color="#00e7f0"/></linearGradient><linearGradient id="zo8df" x1="1308.29" x2="1308.29" y1="508.22" y2="552.01" gradientUnits="userSpaceOnUse"><stop offset="0" stop-color="#006df0"/><stop offset="1" stop-color="#00e7f0"/></linearGradient><linearGradient id="zo8dh" x1="1290.49" x2="1290.49" y1="549.26" y2="550.54" gradientUnits="userSpaceOnUse"><stop offset="0" stop-color="#006df0"/><stop offset="1" stop-color="#00e7f0"/></linearGradient><linearGradient id="zo8dj" x1="1291.44" x2="1291.44" y1="545.58" y2="546.86" gradientUnits="userSpaceOnUse"><stop offset="0" stop-color="#006df0"/><stop offset="1" stop-color="#00e7f0"/></linearGradient><linearGradient id="zo8dl" x1="1292.73" x2="1292.73" y1="541.9" y2="543.18" gradientUnits="userSpaceOnUse"><stop offset="0" stop-color="#006df0"/><stop offset="1" stop-color="#00e7f0"/></linearGradient></defs><g><g transform="translate(-1286 -508)"><use fill="url(#zo8db)" xlink:href="#zo8da"/></g><g transform="translate(-1286 -508)"><use fill="url(#zo8dd)" xlink:href="#zo8dc"/></g><g transform="translate(-1286 -508)"><use fill="url(#zo8df)" xlink:href="#zo8de"/></g><g transform="translate(-1286 -508)"><use fill="url(#zo8dh)" xlink:href="#zo8dg"/></g><g transform="translate(-1286 -508)"><use fill="url(#zo8dj)" xlink:href="#zo8di"/></g><g transform="translate(-1286 -508)"><use fill="url(#zo8dl)" xlink:href="#zo8dk"/></g></g></svg>