<svg xmlns="http://www.w3.org/2000/svg" xmlns:xlink="http://www.w3.org/1999/xlink" width="23" height="25" viewBox="0 0 23 25"><defs><path id="23yia" d="M1510.855 144.616c.129.44.16.891.167 1.306.018.512-.074 1.096-.277 1.752-.255.899-.546 1.822-.838 2.745l-.33 1.105c-.214.558-.11 1.12.298 1.588.409.468.817.936 1.25 1.441l5.073 5.876c.277.344.444.602.514.871.105.404.051.805-.198 1.229-.05.085-.1.17-.186.278-.173.217-.27.228-.464.092-.254-.15-.496-.36-.774-.546l-4.446-3.296c-.495-.359-1.04-.634-1.586-.908l-.46-.225-.643-.264-.592 1.59c-.53 1.444-1.035 2.925-1.527 4.345-.138.352.042.549.175.672.289.284.615.544.904.828l.289.284c.265.247.433.505.466.798.033.293-.019.536-.23.777 0 0-.073.048-.231.046a.53.53 0 0 1-.304-.065 220.742 220.742 0 0 1-4.528-1.566l-1.275-.43c-.121-.025-.206-.075-.351-.138a.136.136 0 0 1-.085-.05l.026-.121c.051-.243.116-.547.192-.753.038-.183.186-.279.381-.3.428-.069.818-.113 1.27-.144l.525-.079.293-.033c.256-.009.453-.19.541-.456.104-.487.231-.936.334-1.423l.988-4.047.103-.486-.352-.138c-.084-.05-.145-.063-.23-.113-.206-.075-.376-.175-.558-.214-.717-.216-1.435-.273-2.167-.27-1.803-.034-3.668-.08-5.495-.151-.159-.002-.317-.004-.5-.043-.182-.039-.206-.075-.18-.197-.03-.451.072-.938.237-1.411.025-.122.112-.23.418-.324s.575-.164.807-.21l8.567-1.896c.233-.046.44-.128.612-.187.454-.19.787-.564.927-1.074.065-.304.153-.571.218-.875l.382-1.348c.291-.923.52-1.7.76-2.38.227-.62.6-1.176 1.104-1.608a.838.838 0 0 1 .527-.238c.172-.059.389.115.459.384zm-.447-1.334c-.415.007-.794.149-1.176.449a4.9 4.9 0 0 0-1.34 1.97c-.24.68-.505 1.481-.797 2.404l-.382 1.349c-.064.304-.153.57-.218.875-.088.267-.188.436-.433.543a7.214 7.214 0 0 0-.477.153l-8.568 1.896c-.269.07-.538.14-.843.233-.612.188-.885.575-.986.903a3.927 3.927 0 0 0-.265 1.69c.006.574.367.968.95 1.06.244.052.463.067.621.069 1.828.07 3.668.08 5.496.151.695.02 1.328.029 1.923.219.146.062.267.088.413.15l-.912 3.842c-.09.425-.205.814-.295 1.24-.037.023-.098.01-.135.034l-.525.08c-.427.067-.842.074-1.27.142-.524.08-.943.404-1.083.914-.088.267-.153.57-.218.875-.116.547.11.976.645 1.153.145.063.267.089.388.115l1.275.43c1.505.542 3.047 1.06 4.565 1.542.206.075.388.114.584.092.195-.022.61-.03.906-.38.347-.434.487-.944.347-1.482a2.045 2.045 0 0 0-.753-1.24l-.289-.284-.795-.741c.492-1.42 1.009-2.804 1.464-4.2l.24-.68.23.113c.521.238 1.006.5 1.44.846l4.52 3.248c.278.186.52.396.774.546.447.285.886.315 1.254.076a1.17 1.17 0 0 0 .37-.398c.087-.109.174-.217.2-.339.398-.678.503-1.322.292-1.971-.177-.514-.477-.896-.705-1.167l-5.073-5.875c-.41-.468-.842-.973-1.25-1.441-.205-.234-.227-.43-.139-.697l.344-1.166c.291-.922.546-1.821.837-2.744a7.138 7.138 0 0 0 .305-2.032c.006-.476-.036-1.025-.213-1.539-.127-.598-.646-.995-1.243-1.026z"/></defs><g><g opacity=".17" transform="translate(-1495 -143)"><use xlink:href="#23yia"/></g></g></svg>