<svg xmlns="http://www.w3.org/2000/svg" xmlns:xlink="http://www.w3.org/1999/xlink" width="24" height="25" viewBox="0 0 24 25"><defs><path id="nvzaa" d="M986.55 138.177c.458.19.858.471 1.21.747.442.333.87.807 1.282 1.423.581.824 1.157 1.696 1.734 2.567l.702 1.028c.323.559.865.854 1.535.829.67-.025 1.341-.05 2.059-.07l8.375-.264c.477.002.807.037 1.08.16.41.187.71.505.897 1.001.037.1.075.2.107.346.065.293.007.382-.238.452-.298.111-.639.171-.984.278l-5.785 1.49c-.638.172-1.24.443-1.84.714l-.502.233-.658.36.932 1.577c.852 1.425 1.75 2.855 2.608 4.233.2.355.489.338.683.31.434-.05.874-.146 1.308-.196l.435-.05c.387-.054.717-.02.986.152.268.171.437.38.496.72 0 0-.01.094-.119.226a.572.572 0 0 1-.26.21c-1.483.942-2.913 1.841-4.39 2.736l-1.227.777c-.104.084-.203.122-.355.201-.052.042-.1.037-.1.037l-.084-.104a6.735 6.735 0 0 1-.501-.673c-.127-.156-.107-.345.007-.524.233-.404.462-.762.742-1.162l.29-.494.172-.268c.166-.221.149-.51-.015-.765-.338-.417-.628-.83-.966-1.246l-2.725-3.578-.337-.417-.356.2c-.099.038-.151.08-.25.118-.204.121-.403.196-.559.322-.668.455-1.204 1.019-1.698 1.635a300.752 300.752 0 0 1-3.86 4.507c-.11.132-.22.263-.376.39s-.203.122-.288.018c-.4-.281-.737-.698-1.023-1.157-.084-.105-.117-.251.012-.572.13-.32.254-.593.373-.82l4.23-8.475c.119-.226.19-.457.258-.64a1.711 1.711 0 0 0-.271-1.508c-.211-.26-.375-.516-.586-.777l-.872-1.236c-.576-.872-1.073-1.592-1.48-2.255a4.159 4.159 0 0 1-.6-2.018.905.905 0 0 1 .16-.604c.067-.184.36-.248.633-.124zm-1.422-.531c-.276.352-.415.767-.422 1.291.047.911.298 1.7.743 2.463.407.663.899 1.43 1.475 2.302l.872 1.236c.211.26.375.517.586.777.164.256.239.455.162.733-.062.136-.13.32-.196.504l-4.23 8.476c-.124.273-.249.546-.378.866-.258.641-.119 1.133.087 1.44.323.56.75 1.033 1.24 1.371.484.385 1.06.35 1.534-.077.209-.169.37-.343.48-.474 1.3-1.486 2.56-3.023 3.86-4.508.49-.569.926-1.095 1.49-1.465.151-.08.256-.164.407-.244l2.603 3.374c.295.365.544.725.84 1.09-.006.048-.058.09-.063.137l-.29.494c-.233.405-.51.758-.742 1.162-.29.495-.303 1.066.03 1.53.164.256.375.517.586.777.38.47.894.571 1.405.243.152-.08.256-.164.36-.248l1.227-.777a135.3 135.3 0 0 0 4.395-2.782c.203-.122.36-.249.474-.427.114-.18.39-.532.298-1.019-.13-.586-.462-1.05-1.009-1.298a2.208 2.208 0 0 0-1.552-.211l-.434.05-1.162.164c-.857-1.378-1.667-2.751-2.529-4.082l-.407-.663.25-.117c.554-.275 1.103-.504 1.689-.633l5.795-1.585c.346-.107.686-.167.984-.279.544-.181.866-.529.916-1a1.263 1.263 0 0 0-.082-.582c-.032-.146-.065-.293-.15-.397-.297-.794-.767-1.32-1.455-1.584-.55-.2-1.075-.208-1.457-.2l-8.376.264c-.67.025-1.388.045-2.058.07-.336.012-.514-.102-.678-.358l-.745-1.08c-.577-.871-1.158-1.696-1.734-2.567a7.704 7.704 0 0 0-1.498-1.636c-.395-.328-.884-.666-1.435-.867-.589-.3-1.274-.134-1.706.346z"/></defs><g><g transform="translate(-983 -137)"><use xlink:href="#nvzaa"/></g></g></svg>