<svg xmlns="http://www.w3.org/2000/svg" xmlns:xlink="http://www.w3.org/1999/xlink" width="40" height="36" viewBox="0 0 40 36"><defs><path id="9mm8a" d="M433.402 528.985a1.53 1.53 0 1 1 3.06 0 1.53 1.53 0 0 1-3.06 0z"/><path id="9mm8c" d="M449.472 528.985a1.53 1.53 0 1 1 3.06 0 1.53 1.53 0 0 1-3.06 0z"/><path id="9mm8e" d="M458.517 531.144v-5.616a2.924 2.924 0 0 1 2.123 2.808c0 1.333-.9 2.46-2.123 2.808zm-1.593.388c0 3.498-1.28 5.918-3.914 7.396-2.25 1.264-5.535 1.878-10.043 1.878-4.507 0-7.792-.614-10.042-1.878-2.635-1.478-3.915-3.898-3.915-7.396v-8.305c0-6.303 4.2-11.642 9.947-13.37 4.379.056 6.711 3.217 6.711 5.505a3.183 3.183 0 0 1-3.18 3.18 2.387 2.387 0 0 1-2.383-2.384 1.75 1.75 0 0 1 1.748-1.748.796.796 0 0 0 0-1.593 3.345 3.345 0 0 0-3.341 3.34 3.981 3.981 0 0 0 3.977 3.978 4.777 4.777 0 0 0 4.772-4.773c0-1.653-.83-3.431-2.222-4.757a8.102 8.102 0 0 0-1.88-1.333c7.607.103 13.765 6.323 13.765 13.955zm-31.63-3.196c0-1.334.9-2.46 2.123-2.808v5.616a2.924 2.924 0 0 1-2.123-2.808zm36.939 0a4.519 4.519 0 0 0-3.716-4.44v-.67c0-8.574-6.976-15.55-15.55-15.55-8.574 0-15.55 6.976-15.55 15.55v.67a4.519 4.519 0 0 0-3.716 4.44 4.519 4.519 0 0 0 3.77 4.45c.301 3.426 1.869 5.957 4.674 7.531 2.495 1.401 6.034 2.082 10.822 2.082 4.788 0 8.328-.681 10.822-2.082 2.806-1.574 4.373-4.105 4.674-7.531a4.519 4.519 0 0 0 3.77-4.45z"/><path id="9mm8g" d="M446.047 531.179a4.36 4.36 0 0 1-6.16 0 .797.797 0 0 0-1.126 1.126 5.93 5.93 0 0 0 4.206 1.74 5.93 5.93 0 0 0 4.207-1.74.797.797 0 0 0-1.127-1.126z"/><linearGradient id="9mm8b" x1="434.93" x2="434.93" y1="527.45" y2="530.51" gradientUnits="userSpaceOnUse"><stop offset="0" stop-color="#006df0"/><stop offset="1" stop-color="#00e7f0"/></linearGradient><linearGradient id="9mm8d" x1="451" x2="451" y1="527.45" y2="530.51" gradientUnits="userSpaceOnUse"><stop offset="0" stop-color="#006df0"/><stop offset="1" stop-color="#00e7f0"/></linearGradient><linearGradient id="9mm8f" x1="442.97" x2="442.97" y1="507.67" y2="542.39" gradientUnits="userSpaceOnUse"><stop offset="0" stop-color="#006df0"/><stop offset="1" stop-color="#00e7f0"/></linearGradient><linearGradient id="9mm8h" x1="442.97" x2="442.97" y1="530.94" y2="534.04" gradientUnits="userSpaceOnUse"><stop offset="0" stop-color="#006df0"/><stop offset="1" stop-color="#00e7f0"/></linearGradient></defs><g><g transform="translate(-423 -507)"><use fill="url(#9mm8b)" xlink:href="#9mm8a"/></g><g transform="translate(-423 -507)"><use fill="url(#9mm8d)" xlink:href="#9mm8c"/></g><g transform="translate(-423 -507)"><use fill="url(#9mm8f)" xlink:href="#9mm8e"/></g><g transform="translate(-423 -507)"><use fill="url(#9mm8h)" xlink:href="#9mm8g"/></g></g></svg>