<svg xmlns="http://www.w3.org/2000/svg" xmlns:xlink="http://www.w3.org/1999/xlink" width="42" height="42" viewBox="0 0 42 42"><defs><path id="ariwa" d="M1751.352 509.577l4.07-1.628v3.257zm5.361 16.133v-18.714a.646.646 0 0 0-.884-.6l-6.453 2.582a.646.646 0 0 0 0 1.199l6.047 2.418v13.115h-.646a.644.644 0 0 0-.456.189l-11.481 11.481-2.448-2.447a.645.645 0 0 0-.912 0l-7.61 7.61-4.706-4.706a.645.645 0 0 0-.913 0l-8.711 8.71a.642.642 0 0 0-.19.457v.645h1.291v-.378l8.066-8.066 4.707 4.706c.252.253.66.253.912 0l7.61-7.61 2.447 2.448c.253.252.66.252.913 0L1755.045 527h3.604v-1.29z"/><path id="ariwc" d="M1721.223 529.691c.282-.662.548-1.287.835-1.87.136-.278.271-.561.407-.847.471-.993.96-2.02 1.582-2.872.79-1.082 2.005-2.385 3.677-3.224l-2.28 2.28a3.23 3.23 0 0 0 0 4.562l2.369 2.37c.252.252.66.252.912 0l.886-.887v3.884c-1.356.795-2.905.579-3.999.23-1.518-.485-3.733-1.19-5.66-.887.479-.877.879-1.816 1.271-2.739zm10.918-14.951a2.584 2.584 0 0 1 2.582 2.58 2.584 2.584 0 0 1-2.582 2.582 2.584 2.584 0 0 1-2.58-2.581 2.584 2.584 0 0 1 2.58-2.581zm7.15 5.807a.645.645 0 0 0 .645-.645v-5.162h1.29v5.162a1.938 1.938 0 0 1-1.935 1.936h-3.872a.645.645 0 0 0-.645.645v3.227c0 .357.289.645.645.645h4.517c1.067 0 1.936.869 1.936 1.936v4.517h-1.936v-3.872a.645.645 0 0 0-.645-.645h-5.808a.645.645 0 0 0-.645.645v9.034h-1.936V523.13a.646.646 0 0 0-1.102-.457l-2.31 2.31a.644.644 0 0 0 0 .912l1.803 1.802-1.023 1.023-1.913-1.912a1.94 1.94 0 0 1 0-2.738l3.574-3.574a3.85 3.85 0 0 0 2.21.698c.018 0 .034-.003.051-.003v3.874h1.291v-4.116c.281-.104.548-.237.794-.4zm-3.618 9.402c-.244.18-.548.316-.868.46-.146.065-.292.13-.435.2-.08.039-.16.084-.242.127v-1.155h1.814c-.073.153-.165.29-.269.368zm-6.062-3.76l-.751-.752.751-.75zm-11.146 8.353c1.564-1.654 4.813-.615 6.755.004a7.61 7.61 0 0 0 2.31.385c.744 0 1.438-.147 2.081-.41v4.094c0 .357.29.646.646.646h3.226a.645.645 0 0 0 .645-.646v-6.27c.143-.213.407-.38.809-.576.13-.064.262-.123.394-.181.37-.166.752-.337 1.11-.602.421-.312.734-.85.859-1.405h1.345v3.872c0 .357.29.645.646.645h3.226a.645.645 0 0 0 .645-.645v-5.162a3.23 3.23 0 0 0-3.226-3.227h-3.872v-1.935h3.227a3.23 3.23 0 0 0 3.226-3.227v-5.807a.645.645 0 0 0-.645-.646h-2.581a.645.645 0 0 0-.646.646v5.162h-3.155c.33-.57.524-1.23.524-1.936a3.876 3.876 0 0 0-3.872-3.872 3.876 3.876 0 0 0-3.872 3.872c0 .647.162 1.255.443 1.792-2.18.643-4.145 2.087-5.708 4.227-.694.95-1.208 2.033-1.706 3.08-.133.28-.265.558-.4.831-.302.615-.587 1.286-.863 1.935-.692 1.625-1.406 3.304-2.508 4.468v.001a.645.645 0 1 0 .937.887z"/><linearGradient id="ariwb" x1="1738" x2="1738" y1="506.35" y2="547.65" gradientUnits="userSpaceOnUse"><stop offset="0" stop-color="#006df0"/><stop offset="1" stop-color="#00e7f0"/></linearGradient><linearGradient id="ariwd" x1="1730.26" x2="1730.26" y1="513.45" y2="539.26" gradientUnits="userSpaceOnUse"><stop offset="0" stop-color="#006df0"/><stop offset="1" stop-color="#00e7f0"/></linearGradient></defs><g><g transform="translate(-1717 -506)"><g><use fill="url(#ariwb)" xlink:href="#ariwa"/></g><g><use fill="url(#ariwd)" xlink:href="#ariwc"/></g></g></g></svg>